<svg width="24" height="24" viewBox="0 0 24 24" fill="none" xmlns="http://www.w3.org/2000/svg">
<g clip-path="url(#clip0_274_11284)">
<path d="M9.85996 18.0009C9.72285 18.0004 9.58729 17.9718 9.4617 17.9168C9.33612 17.8617 9.2232 17.7814 9.12996 17.6809L4.26996 12.5109C4.08829 12.3173 3.99097 12.0594 3.99941 11.7941C4.00785 11.5287 4.12136 11.2776 4.31496 11.0959C4.50857 10.9142 4.76642 10.8169 5.03178 10.8253C5.29715 10.8338 5.54829 10.9473 5.72996 11.1409L9.84996 15.5309L18.26 6.33089C18.3453 6.22461 18.4515 6.1369 18.572 6.07315C18.6924 6.0094 18.8247 5.97095 18.9606 5.96017C19.0964 5.94938 19.2331 5.96649 19.3621 6.01044C19.4911 6.05439 19.6098 6.12425 19.7108 6.21573C19.8119 6.30722 19.8932 6.41839 19.9497 6.54243C20.0062 6.66647 20.0367 6.80075 20.0395 6.93703C20.0422 7.0733 20.017 7.2087 19.9655 7.3349C19.914 7.4611 19.8373 7.57543 19.74 7.67089L10.6 17.6709C10.5076 17.7732 10.3951 17.8554 10.2695 17.9122C10.1438 17.969 10.0078 17.9992 9.86996 18.0009H9.85996Z" fill="#0A0E29"/>
</g>
<defs>
<clipPath id="clip0_274_11284">
<rect width="24" height="24" fill="white"/>
</clipPath>
</defs>
</svg>
